<?xml version="1.0" encoding="utf-8"?>
<!-- Generator: Adobe Illustrator 28.2.0, SVG Export Plug-In . SVG Version: 6.00 Build 0)  -->
<svg version="1.1" id="Layer_1" xmlns="http://www.w3.org/2000/svg" xmlns:xlink="http://www.w3.org/1999/xlink" x="0px" y="0px"
	 viewBox="0 0 32 32" style="enable-background:new 0 0 32 32;" xml:space="preserve">
<style type="text/css">
	.st0{fill:#FFFFFF;}
	.st1{fill:#0E423E;}
</style>
<rect class="st0" width="32" height="32"/>
<g>
	<g>
		<path class="st0" d="M19.84,31.84h-7.68c-6.63,0-12-5.37-12-12v-7.68c0-6.63,5.37-12,12-12h7.68c6.63,0,12,5.37,12,12v7.68
			C31.84,26.47,26.47,31.84,19.84,31.84z"/>
		<path class="st1" d="M27.99,32H4.01C1.8,32,0,30.2,0,27.99V4.01C0,1.8,1.8,0,4.01,0h23.97C30.2,0,32,1.8,32,4.01v23.97
			C32,30.2,30.2,32,27.99,32z M4.01,0.32c-2.04,0-3.69,1.66-3.69,3.69v23.97c0,2.04,1.66,3.69,3.69,3.69h23.97
			c2.04,0,3.69-1.66,3.69-3.69V4.01c0-2.04-1.66-3.69-3.69-3.69H4.01z"/>
	</g>
	<g>
		<path class="st1" d="M2.95,3.19h6.41 M11.19,3.19h2.75 M15.77,3.19h0.92 M18.51,3.19h3.66 M23.09,3.19h6.41 M2.95,4.1h0.92
			 M8.45,4.1h0.92 M10.28,4.1h0.92 M12.11,4.1h0.92 M14.85,4.1h0.92 M19.43,4.1h1.83 M23.09,4.1H24 M28.58,4.1h0.92 M2.95,5.02h0.92
			 M4.79,5.02h2.75 M8.45,5.02h0.92 M11.19,5.02h1.83 M16.68,5.02h0.92 M19.43,5.02h2.75 M23.09,5.02H24 M24.92,5.02h2.75
			 M28.58,5.02h0.92 M2.95,5.93h0.92 M4.79,5.93h2.75 M8.45,5.93h0.92 M11.19,5.93h4.58 M17.6,5.93h0.92 M19.43,5.93h2.75
			 M23.09,5.93H24 M24.92,5.93h2.75 M28.58,5.93h0.92 M2.95,6.85h0.92 M4.79,6.85h2.75 M8.45,6.85h0.92 M10.28,6.85h0.92
			 M12.11,6.85h0.92 M13.94,6.85h1.83 M17.6,6.85h0.92 M19.43,6.85h1.83 M23.09,6.85H24 M24.92,6.85h2.75 M28.58,6.85h0.92
			 M2.95,7.76h0.92 M8.45,7.76h0.92 M13.94,7.76h0.92 M15.77,7.76h2.75 M20.34,7.76h1.83 M23.09,7.76H24 M28.58,7.76h0.92
			 M2.95,8.68h6.41 M10.28,8.68h0.92 M12.11,8.68h0.92 M13.94,8.68h0.92 M15.77,8.68h0.92 M17.6,8.68h0.92 M19.43,8.68h0.92
			 M21.26,8.68h0.92 M23.09,8.68h6.41 M11.19,9.59h1.83 M16.68,9.59h0.92 M18.51,9.59h1.83 M21.26,9.59h0.92 M2.95,10.51h0.92
			 M4.79,10.51H5.7 M6.62,10.51h0.92 M8.45,10.51h0.92 M11.19,10.51h0.92 M13.02,10.51h1.83 M17.6,10.51h1.83 M20.34,10.51h1.83
			 M24.92,10.51h0.92 M27.67,10.51h0.92 M3.87,11.42h0.92 M5.7,11.42h0.92 M9.36,11.42h4.58 M14.85,11.42h0.92 M16.68,11.42h1.83
			 M21.26,11.42h0.92 M23.09,11.42H24 M25.84,11.42h0.92 M28.58,11.42h0.92 M3.87,12.34h0.92 M7.53,12.34h3.66 M12.11,12.34h0.92
			 M15.77,12.34h3.66 M21.26,12.34h0.92 M23.09,12.34h2.75 M26.75,12.34h2.75 M3.87,13.25H5.7 M7.53,13.25h0.92 M9.36,13.25h0.92
			 M12.11,13.25h0.92 M14.85,13.25h1.83 M17.6,13.25h7.32 M27.67,13.25h0.92 M3.87,14.17h2.75 M7.53,14.17h3.66 M12.11,14.17h2.75
			 M15.77,14.17h1.83 M18.51,14.17h0.92 M22.17,14.17h2.75 M25.84,14.17h0.92 M27.67,14.17h1.83 M3.87,15.08H5.7 M6.62,15.08h1.83
			 M10.28,15.08h1.83 M13.02,15.08h0.92 M15.77,15.08h1.83 M21.26,15.08H24 M25.84,15.08h0.92 M28.58,15.08h0.92 M2.95,16h0.92
			 M4.79,16h2.75 M8.45,16h0.92 M10.28,16h1.83 M13.02,16h2.75 M22.17,16H24 M25.84,16h0.92 M27.67,16h1.83 M2.95,16.92h0.92
			 M4.79,16.92h1.83 M7.53,16.92h0.92 M9.36,16.92h0.92 M16.68,16.92h0.92 M18.51,16.92h2.75 M23.09,16.92H24 M24.92,16.92h1.83
			 M27.67,16.92h0.92 M3.87,17.83h2.75 M7.53,17.83h2.75 M11.19,17.83h0.92 M13.94,17.83h0.92 M17.6,17.83h2.75 M21.26,17.83H24
			 M25.84,17.83h0.92 M27.67,17.83h1.83 M3.87,18.75H5.7 M11.19,18.75h0.92 M14.85,18.75h0.92 M16.68,18.75h1.83 M21.26,18.75H24
			 M25.84,18.75h1.83 M28.58,18.75h0.92 M2.95,19.66h0.92 M8.45,19.66h2.75 M12.11,19.66h2.75 M15.77,19.66h3.66 M21.26,19.66h4.58
			 M27.67,19.66h1.83 M3.87,20.58h0.92 M6.62,20.58h0.92 M10.28,20.58h3.66 M14.85,20.58h1.83 M17.6,20.58h2.75 M25.84,20.58h0.92
			 M27.67,20.58h0.92 M2.95,21.49h0.92 M4.79,21.49h1.83 M8.45,21.49h0.92 M10.28,21.49h1.83 M15.77,21.49h1.83 M19.43,21.49h0.92
			 M21.26,21.49h4.58 M10.28,22.41h1.83 M13.02,22.41h1.83 M15.77,22.41h1.83 M21.26,22.41h0.92 M24.92,22.41h0.92 M26.75,22.41
			h2.75 M2.95,23.32h6.41 M13.02,23.32h2.75 M18.51,23.32h0.92 M20.34,23.32h1.83 M23.09,23.32H24 M24.92,23.32h1.83 M27.67,23.32
			h1.83 M2.95,24.24h0.92 M8.45,24.24h0.92 M12.11,24.24h1.83 M16.68,24.24h0.92 M21.26,24.24h0.92 M24.92,24.24h1.83 M28.58,24.24
			h0.92 M2.95,25.15h0.92 M4.79,25.15h2.75 M8.45,25.15h0.92 M10.28,25.15h0.92 M13.94,25.15h0.92 M17.6,25.15h0.92 M21.26,25.15
			h4.58 M2.95,26.07h0.92 M4.79,26.07h2.75 M8.45,26.07h0.92 M11.19,26.07h1.83 M13.94,26.07h0.92 M16.68,26.07h2.75 M24,26.07h1.83
			 M26.75,26.07h0.92 M2.95,26.98h0.92 M4.79,26.98h2.75 M8.45,26.98h0.92 M10.28,26.98h0.92 M12.11,26.98h1.83 M14.85,26.98h0.92
			 M16.68,26.98h1.83 M19.43,26.98h2.75 M24,26.98h2.75 M28.58,26.98h0.92 M2.95,27.9h0.92 M8.45,27.9h0.92 M13.02,27.9h0.92
			 M15.77,27.9h0.92 M17.6,27.9h4.58 M23.09,27.9H24 M24.92,27.9h0.92 M27.67,27.9h0.92 M2.95,28.81h6.41 M10.28,28.81h0.92
			 M12.11,28.81h2.75 M15.77,28.81h1.83 M19.43,28.81h2.75 M24,28.81h1.83 M27.67,28.81h1.83"/>
		<path class="st1" d="M29.5,29.27h-1.83v-1.83h0.92v0.92h0.92V29.27z M25.84,29.27H24v-0.92h-0.92v-0.92H24v0.92h0.92v-0.92h0.92
			V29.27z M22.17,29.27h-2.75v-0.92H17.6v-0.92h4.58V29.27z M17.6,29.27h-1.83v-1.83h0.92v0.92h0.92V29.27z M14.85,29.27h-2.75
			v-0.92h0.92v-0.92h0.92v0.92h0.92V29.27z M11.19,29.27h-0.92v-0.92h0.92V29.27z M9.36,29.27H2.95v-1.83h0.92v0.92h4.58v-0.92h0.92
			V29.27z M29.5,27.44h-0.92v-0.92h0.92V27.44z M26.75,27.44H24v-1.83h-2.75v-1.83h-0.92v-0.92h0.92v-1.83h4.58v1.83h0.92v1.83
			h-0.92v1.83h0.92V27.44z M22.17,24.69h2.75v-2.75h-2.75V24.69z M22.17,27.44h-2.75v-0.92h-0.92v0.92h-1.83v-1.83h0.92v-0.92h-0.92
			v-0.92h0.92v0.92h0.92v0.92h0.92v0.92h2.75V27.44z M15.77,27.44h-0.92v-0.92h-0.92v-1.83h-1.83v-0.92h0.92v-1.83h1.83v0.92h0.92
			v0.92h-1.83v0.92h0.92v1.83h0.92V27.44z M13.94,27.44h-1.83v-0.92h-0.92v-0.92h-0.92v-0.92h0.92v0.92h1.83v0.92h0.92V27.44z
			 M11.19,27.44h-0.92v-0.92h0.92V27.44z M9.36,27.44H8.45v-3.66H3.87v3.66H2.95v-4.58h6.41V27.44z M7.53,27.44H4.79v-2.75h2.75
			V27.44z M27.67,26.53h-0.92v-0.92h0.92V26.53z M29.5,24.69h-0.92v-0.92h-0.92v-0.92h-0.92v-0.92h2.75V24.69z M24,23.78h-0.92
			v-0.92H24V23.78z M19.43,23.78h-0.92v-0.92h0.92V23.78z M17.6,22.86h-1.83v-1.83h-0.92v-0.92h-0.92v0.92h-1.83v1.83h-1.83v-2.75
			H8.45V19.2h2.75v0.92h0.92V19.2h-0.92v-1.83h0.92v1.83h2.75v0.92h0.92V19.2h-0.92v-0.92h-0.92v-0.92h0.92v0.92h0.92v0.92h0.92
			v-0.92h0.92v-0.92h2.75v0.92h-1.83v0.92h0.92v0.92h0.92v1.83h-0.92v-0.92H17.6v-0.92h-0.92v0.92h0.92V22.86z M9.36,21.95H8.45
			v-0.92h0.92V21.95z M6.62,21.95H4.79v-0.92H3.87v-0.92H2.95V19.2h0.92v0.92h0.92v0.92h1.83V21.95z M3.87,21.95H2.95v-0.92h0.92
			V21.95z M28.58,21.03h-0.92V19.2h-1.83v-1.83h0.92v0.92h0.92v0.92h0.92v-0.92h-0.92v-0.92h1.83v2.75h-0.92V21.03z M26.75,21.03
			h-0.92v-0.92h-4.58v-2.75H24v1.83h1.83v0.92h0.92V21.03z M7.53,21.03H6.62v-0.92h0.92V21.03z M5.7,19.2H3.87v-1.83h2.75v0.92H5.7
			V19.2z M10.28,18.29H7.53v-0.92h2.75V18.29z M28.58,17.37h-0.92v-1.83h0.92v-0.92h-0.92V12.8h-0.92v-0.92h-0.92v-0.92h-0.92v-0.92
			h0.92v0.92h0.92v0.92h1.83v-0.92h-0.92v-0.92h0.92v0.92h0.92v1.83h-0.92v0.92h0.92v2.75h-0.92V17.37z M26.75,17.37h-1.83v-0.92
			h0.92v-2.75h0.92V17.37z M24,17.37h-0.92v-0.92h-0.92v-0.92h-0.92v-0.92h0.92v-0.92h-2.75v0.92h-0.92v-0.92H17.6V12.8h-0.92v0.92
			h0.92v1.83h-1.83v-1.83h-0.92V12.8h0.92v-0.92h-0.92v-0.92h-0.92v0.92h-0.92v1.83h1.83v0.92h-0.92v0.92h1.83v0.92h-2.75v-1.83
			h-0.92v-2.75h-0.92v0.92h-0.92v0.92h0.92v0.92h0.92v1.83h-1.83v-1.83H8.45v0.92h0.92v0.92h0.92v0.92H9.36v-0.92H8.45v-0.92H7.53
			v0.92h0.92v0.92H7.53v-0.92H6.62v0.92H4.79v-1.83H3.87v-4.58H2.95v-0.92h0.92v0.92h0.92v1.83H5.7v0.92h0.92v0.92h0.92v-2.75h1.83
			v-0.92H8.45v-0.92h0.92v0.92h1.83V9.14h-0.92V8.22h0.92v0.92h0.92V8.22h0.92v1.83h1.83v0.92h0.92v0.92h0.92v-0.92h0.92v-0.92
			h-0.92V9.14h-0.92V7.31h2.75v1.83h0.92V8.22h0.92v1.83h0.92V8.22h-0.92V7.31h1.83v5.49h0.92v-1.83H24v0.92h1.83v0.92h-0.92v1.83
			H24V17.37z M5.7,15.54h0.92v-0.92H5.7V15.54z M8.45,13.71h0.92V12.8H8.45V13.71z M19.43,12.8h1.83v-1.83h-0.92v-0.92h-0.92v0.92
			h-0.92v0.92h0.92V12.8z M12.11,10.97h0.92v-0.92h-0.92V10.97z M17.6,10.05h0.92V9.14H17.6V8.22h-0.92v0.92h0.92V10.05z
			 M21.26,17.37h-2.75v-0.92h2.75V17.37z M17.6,17.37h-0.92v-0.92h0.92V17.37z M3.87,17.37H2.95v-1.83h0.92V17.37z M6.62,11.88H5.7
			v-0.92H4.79v-0.92H5.7v0.92h0.92V11.88z M7.53,10.97H6.62v-0.92h0.92V10.97z M29.5,9.14h-6.41V7.31H24v0.92h4.58V7.31h0.92V9.14z
			 M14.85,9.14h-0.92V7.31h0.92V9.14z M9.36,9.14H2.95V7.31h0.92v0.92h4.58V7.31h0.92V9.14z M29.5,7.31h-0.92V3.64H24v3.66h-0.92
			V2.73h6.41V7.31z M27.67,7.31h-2.75V4.56h2.75V7.31z M21.26,7.31h-1.83V3.64h-0.92V2.73h3.66v0.92h-0.92v0.92h0.92v1.83h-0.92
			V7.31z M18.51,7.31H17.6V5.47h-0.92V4.56h0.92v0.92h0.92V7.31z M15.77,7.31h-1.83V6.39h-0.92v0.92h-0.92V6.39h-0.92V4.56h-0.92
			V3.64h0.92v0.92h0.92V3.64h-0.92V2.73h2.75v0.92h-0.92v1.83h2.75V7.31z M11.19,7.31h-0.92V6.39h0.92V7.31z M9.36,7.31H8.45V3.64
			H3.87v3.66H2.95V2.73h6.41V7.31z M7.53,7.31H4.79V4.56h2.75V7.31z M15.77,4.56h-0.92V3.64h0.92V4.56z M16.68,3.64h-0.92V2.73h0.92
			V3.64z"/>
	</g>
</g>
</svg>
